<svg width="18" height="18" viewBox="0 0 18 18" fill="none" xmlns="http://www.w3.org/2000/svg">
<path d="M12.1667 11.3333C11.4722 11.3333 10.8819 11.0903 10.3958 10.6042C9.90972 10.1181 9.66667 9.52778 9.66667 8.83333C9.66667 8.13889 9.90972 7.54861 10.3958 7.0625C10.8819 6.57639 11.4722 6.33333 12.1667 6.33333C12.8611 6.33333 13.4514 6.57639 13.9375 7.0625C14.4236 7.54861 14.6667 8.13889 14.6667 8.83333C14.6667 9.52778 14.4236 10.1181 13.9375 10.6042C13.4514 11.0903 12.8611 11.3333 12.1667 11.3333ZM12.1667 9.66667C12.4028 9.66667 12.6007 9.58681 12.7604 9.42708C12.9201 9.26736 13 9.06944 13 8.83333C13 8.59722 12.9201 8.39931 12.7604 8.23958C12.6007 8.07986 12.4028 8 12.1667 8C11.9306 8 11.7326 8.07986 11.5729 8.23958C11.4132 8.39931 11.3333 8.59722 11.3333 8.83333C11.3333 9.06944 11.4132 9.26736 11.5729 9.42708C11.7326 9.58681 11.9306 9.66667 12.1667 9.66667ZM7.16667 17.1667V14.75C7.16667 14.4583 7.23611 14.184 7.375 13.9271C7.51389 13.6701 7.70833 13.4653 7.95833 13.3125C8.40278 13.0486 8.87153 12.8299 9.36458 12.6562C9.85764 12.4826 10.3611 12.3542 10.875 12.2708L12.1667 13.8333L13.4583 12.2708C13.9722 12.3542 14.4722 12.4826 14.9583 12.6562C15.4444 12.8299 15.9097 13.0486 16.3542 13.3125C16.6042 13.4653 16.8021 13.6701 16.9479 13.9271C17.0938 14.184 17.1667 14.4583 17.1667 14.75V17.1667H7.16667ZM8.8125 15.5H11.375L10.25 14.125C10 14.1944 9.75694 14.2847 9.52083 14.3958C9.28472 14.5069 9.04861 14.625 8.8125 14.75V15.5ZM12.9583 15.5H15.5V14.75C15.2778 14.6111 15.0486 14.4896 14.8125 14.3854C14.5764 14.2812 14.3333 14.1944 14.0833 14.125L12.9583 15.5ZM2.16667 15.5C1.70833 15.5 1.31597 15.3368 0.989583 15.0104C0.663194 14.684 0.5 14.2917 0.5 13.8333V2.16667C0.5 1.70833 0.663194 1.31597 0.989583 0.989583C1.31597 0.663194 1.70833 0.5 2.16667 0.5H13.8333C14.2917 0.5 14.684 0.663194 15.0104 0.989583C15.3368 1.31597 15.5 1.70833 15.5 2.16667V6.33333C15.2778 6.05556 15.0347 5.79167 14.7708 5.54167C14.5069 5.29167 14.1944 5.125 13.8333 5.04167V2.16667H2.16667V13.8333H5.625C5.58333 13.9861 5.55208 14.1389 5.53125 14.2917C5.51042 14.4444 5.5 14.5972 5.5 14.75V15.5H2.16667ZM3.83333 5.5H9.66667C10.0278 5.22222 10.4236 5.01389 10.8542 4.875C11.2847 4.73611 11.7222 4.66667 12.1667 4.66667V3.83333H3.83333V5.5ZM3.83333 8.83333H8C8 8.54167 8.03125 8.25694 8.09375 7.97917C8.15625 7.70139 8.24306 7.43056 8.35417 7.16667H3.83333V8.83333ZM3.83333 12.1667H6.70833C6.86111 12.0417 7.02431 11.9306 7.19792 11.8333C7.37153 11.7361 7.54861 11.6458 7.72917 11.5625V10.5H3.83333V12.1667ZM2.16667 13.8333V2.16667V5.02083V4.66667V13.8333Z" fill="#768893"/>
</svg>
