<svg width="16" height="18" viewBox="0 0 16 18" fill="none" xmlns="http://www.w3.org/2000/svg">
<path d="M8 1.16663C8.14982 1.16663 8.29531 1.19527 8.43945 1.25647L8.58301 1.32874L8.58398 1.32971L14.417 4.68323V4.68225C14.5613 4.76589 14.6761 4.86637 14.7666 4.98303L14.8496 5.10608C14.9482 5.27518 14.9999 5.46517 15 5.68713V12.3121C15 12.479 14.9705 12.6279 14.9141 12.7633L14.8496 12.8942C14.7748 13.0224 14.6765 13.1334 14.5508 13.2281L14.417 13.316L8.58398 16.6705L8.58301 16.6715C8.39165 16.7823 8.19962 16.8336 8 16.8336C7.85022 16.8336 7.70465 16.8049 7.56055 16.7438L7.41699 16.6715L7.41602 16.6705L1.58301 13.316H1.58203C1.43819 13.2325 1.32366 13.1327 1.2334 13.0162L1.15039 12.8942C1.05168 12.7249 1 12.5343 1 12.3121V5.68713C1.00004 5.52054 1.02965 5.37217 1.08594 5.23694L1.15039 5.10608C1.24991 4.93547 1.3897 4.79384 1.58203 4.68225L1.58301 4.68323L7.41602 1.32971L7.41699 1.32874C7.60835 1.21795 7.80038 1.16663 8 1.16663ZM13.583 6.151L8.58301 9.04651L8.33301 9.19104V16.0553L9.08398 15.6198L14.084 12.7242L14.333 12.5797V5.71545L13.583 6.151ZM2.8125 4.75452L2.06348 5.18713L2.8125 5.62073L7.75 8.47424L8 8.61877L8.25 8.47424L13.1875 5.62073L13.9365 5.18713L13.1875 4.75452L8 1.75549L2.8125 4.75452ZM7.66699 9.19104L7.41699 9.04651L2.41699 6.151L1.66699 5.71545V12.5797L1.91602 12.7242L6.91602 15.6198L7.66699 16.0553V9.19104Z" fill="#1C1B1F" stroke="#768893"/>
</svg>
