<svg width="14" height="14" viewBox="0 0 14 14" fill="none" xmlns="http://www.w3.org/2000/svg">
<path d="M7.00004 7.00004C6.08337 7.00004 5.29865 6.67365 4.64587 6.02087C3.9931 5.3681 3.66671 4.58337 3.66671 3.66671C3.66671 2.75004 3.9931 1.96532 4.64587 1.31254C5.29865 0.659763 6.08337 0.333374 7.00004 0.333374C7.91671 0.333374 8.70143 0.659763 9.35421 1.31254C10.007 1.96532 10.3334 2.75004 10.3334 3.66671C10.3334 4.58337 10.007 5.3681 9.35421 6.02087C8.70143 6.67365 7.91671 7.00004 7.00004 7.00004ZM0.333374 13.6667V11.3334C0.333374 10.8612 0.454902 10.4271 0.697957 10.0313C0.941013 9.63546 1.26393 9.33337 1.66671 9.12504C2.52782 8.69448 3.40282 8.37157 4.29171 8.15629C5.1806 7.94101 6.08337 7.83337 7.00004 7.83337C7.91671 7.83337 8.81948 7.94101 9.70837 8.15629C10.5973 8.37157 11.4723 8.69448 12.3334 9.12504C12.7362 9.33337 13.0591 9.63546 13.3021 10.0313C13.5452 10.4271 13.6667 10.8612 13.6667 11.3334V13.6667H0.333374ZM2.00004 12H12V11.3334C12 11.1806 11.9618 11.0417 11.8855 10.9167C11.8091 10.7917 11.7084 10.6945 11.5834 10.625C10.8334 10.25 10.0764 9.96879 9.31254 9.78129C8.54865 9.59379 7.77782 9.50004 7.00004 9.50004C6.22226 9.50004 5.45143 9.59379 4.68754 9.78129C3.92365 9.96879 3.16671 10.25 2.41671 10.625C2.29171 10.6945 2.19101 10.7917 2.11462 10.9167C2.03824 11.0417 2.00004 11.1806 2.00004 11.3334V12ZM7.00004 5.33337C7.45837 5.33337 7.85073 5.17018 8.17712 4.84379C8.50351 4.5174 8.66671 4.12504 8.66671 3.66671C8.66671 3.20837 8.50351 2.81601 8.17712 2.48962C7.85073 2.16324 7.45837 2.00004 7.00004 2.00004C6.54171 2.00004 6.14935 2.16324 5.82296 2.48962C5.49657 2.81601 5.33337 3.20837 5.33337 3.66671C5.33337 4.12504 5.49657 4.5174 5.82296 4.84379C6.14935 5.17018 6.54171 5.33337 7.00004 5.33337Z" fill="#768893"/>
</svg>
